<svg id="Ebene_1" data-name="Ebene 1" xmlns="http://www.w3.org/2000/svg" xmlns:xlink="http://www.w3.org/1999/xlink" viewBox="0 0 57.38 79.03"><defs><style>.cls-1{fill:none;}.cls-2{clip-path:url(#clip-path);}.cls-3,.cls-4{fill:#8e8e8e;}.cls-4,.cls-8{fill-rule:evenodd;}.cls-5{fill:#e5be00;}.cls-6{fill:#ff0;}.cls-7{fill:#0079c2;}.cls-8{fill:#e20c13;}</style><clipPath id="clip-path" transform="translate(0.61 0.82)"><rect class="cls-1" x="-23.79" y="-17.32" width="104.48" height="98.9"/></clipPath></defs><g class="cls-2"><g class="cls-2"><path class="cls-3" d="M45.62,76.42a.17.17,0,0,1,.13,0,.17.17,0,0,1,0,.13v.22a.4.4,0,0,1,0,.17.2.2,0,0,1-.13.08.25.25,0,0,1,.13.09.35.35,0,0,1,0,.16v.4h-.16V77.3c0-.06,0-.11,0-.13a.17.17,0,0,0-.12,0h-.1v.57h-.16V76.42Zm-.24.57h.1c.06,0,.1,0,.12,0s0-.06,0-.12V76.6s0,0,0,0h-.22Zm-.31.72h-.5V76.42h.5v.15h-.34V77h.34v.15h-.34v.42h.34Zm-1.13-1.29.21.64.07.28v-.92h.16v1.29h-.16l-.2-.65-.07-.27v.92h-.16V76.42Zm-.35,1.29h-.26a.34.34,0,0,1-.25-.08A.32.32,0,0,1,43,77.4v-.81a.16.16,0,0,1,.19-.17h.21a.2.2,0,0,1,.14,0,.21.21,0,0,1,.05.13v.25h-.17V76.6a0,0,0,0,0,0,0h-.18s0,0,0,0v.8a.13.13,0,0,0,.16.16h.09v-.42h-.11V77h.28Zm-1-1.29h.16v1.29h-.16Zm-.79.17a.16.16,0,0,1,.19-.17h.21a.2.2,0,0,1,.14,0,.21.21,0,0,1,0,.13v.25h-.17V76.6s0,0,0,0h-.17s0,0,0,0v.21a.15.15,0,0,0,.06.13l.07,0,0,0,0,0a.56.56,0,0,1,.14.1.26.26,0,0,1,.07.19v.22a.17.17,0,0,1,0,.13.2.2,0,0,1-.14,0H42a.2.2,0,0,1-.14,0,.17.17,0,0,1,0-.13v-.25H42v.25s0,0,0,0h.17s0,0,0,0v-.22a.16.16,0,0,0-.06-.12l-.07,0,0,0,0,0a.39.39,0,0,1-.14-.1.32.32,0,0,1-.07-.2Zm-.11,1.12h-.5V76.42h.5v.15H41.4V77h.34v.15H41.4v.42h.34Zm-1.12-.15h.09a.13.13,0,0,0,.16-.16v-.8s0,0,0,0h-.21Zm-.17.15V76.42h.4a.16.16,0,0,1,.19.17v.81a.37.37,0,0,1-.07.23.38.38,0,0,1-.26.08Zm-.58,0H39.6a.36.36,0,0,1-.25-.08.32.32,0,0,1-.07-.23v-.81a.21.21,0,0,1,0-.13.2.2,0,0,1,.14,0h.21a.16.16,0,0,1,.19.17v.25H39.7V76.6s0,0,0,0h-.18a0,0,0,0,0,0,0v.8a.23.23,0,0,0,0,.13.19.19,0,0,0,.12,0h.1v-.42h-.12V77h.29Zm-1.21-1.29.2.64.07.28v-.92h.16v1.29h-.16l-.2-.65-.07-.27v.92H38.5V76.42Zm-.78,0v1.11s0,0,0,0h.18s0,0,0,0V76.42h.16v1.11a.14.14,0,0,1,0,.13.17.17,0,0,1-.13,0H37.9a.19.19,0,0,1-.13,0,.14.14,0,0,1-.05-.13V76.42Zm-.74.57h.1a.15.15,0,0,0,.12,0,.17.17,0,0,0,0-.12V76.6a0,0,0,0,0,0,0h-.22Zm0,.15v.57H37V76.42h.4a.2.2,0,0,1,.14,0,.21.21,0,0,1,.05.13v.24a.32.32,0,0,1-.07.23.36.36,0,0,1-.25.08Zm-.74.57h-.2l-.18-1,0,1h-.17l.07-1.29h.2l.13.64.08.5h0l.08-.5.12-.64h.21l.06,1.29h-.16l0-1Zm-.91-.48,0-.17-.06-.49h0l-.06.49,0,.17Zm-.42.48.19-1.29h.26l.2,1.29h-.16l-.05-.33h-.23l-.05.33ZM34.53,77h.09c.06,0,.1,0,.12,0s0-.06,0-.12v-.41H35v.39a.39.39,0,0,1,0,.17.2.2,0,0,1-.12.08.27.27,0,0,1,.12.09.34.34,0,0,1,0,.16v.4h-.17V77.3c0-.06,0-.11,0-.13a.17.17,0,0,0-.12,0h-.09v.57h-.17V76.42h.17Z" transform="translate(0.61 0.82)"/><path class="cls-4" d="M32,77.11l.49.48s.08,0,.12-.07l.15-.13s0,0,0,0l-.21-.21s0-.06,0-.08l.25-.23s0,0,.12,0l.21.21c.06.05,0,.06-.06.15l-.07.07-.07.06-.29.27,0,0c-.06,0,0,0,0,.1l.12.12.07.06.32-.3.16-.15.24-.22.08-.08c.09-.08,0-.09-.07-.21l0,0-.39-.38-.24-.23s-.09,0-.12,0l-.32.3-.08.07-.16.15a.6.6,0,0,1-.08.08s-.15.13-.16.15" transform="translate(0.61 0.82)"/><path class="cls-4" d="M32.78,78s-.17-.17-.2-.2l0,0-.64-.62-.06-.06.21-.19,0,0,.12-.1.61-.57-.13-.12,0,0a.12.12,0,0,0-.13,0l0,0,0,0-.31.28,0,0L32,76.5l-.53.5s-.12.09-.06.15a2.18,2.18,0,0,0,.22.21l.08.09c.07,0,.11.11.18.16s.11.12.17.17l.17.17.18.17s0,.06.09.07.15,0,.22-.1l.09-.08" transform="translate(0.61 0.82)"/><path class="cls-3" d="M30.52,77.7h-.17v-.56H30.1v.56h-.16V76.42h.16V77h.25v-.57h.17Zm-.73,0h-.5V76.42h.5v.15h-.33V77h.33v.15h-.33v.42h.33Zm-.59,0h-.5V76.42h.17v1.14h.33Zm-1.07-1.13s0,0,0,0v.92s0,0,0,0h.17s0,0,0,0V76.6s0,0,0,0Zm.19-.15a.17.17,0,0,1,.13,0,.14.14,0,0,1,.05.13v.93a.15.15,0,0,1-.05.13.17.17,0,0,1-.13,0h-.21a.21.21,0,0,1-.14,0,.19.19,0,0,1,0-.13V76.6a.17.17,0,0,1,0-.13.22.22,0,0,1,.14,0Zm-1,1.28h-.26a.32.32,0,0,1-.25-.08.29.29,0,0,1-.07-.22v-.8a.17.17,0,0,1,0-.13.2.2,0,0,1,.14,0h.21a.19.19,0,0,1,.13,0,.17.17,0,0,1,.05.13v.24h-.16V76.6s0,0,0,0H27a0,0,0,0,0,0,0v.8a.17.17,0,0,0,0,.12s.06,0,.12,0h.1v-.42h-.12V77h.28Zm-1.18-1.28.2.64.07.27v-.91h.16V77.7h-.16l-.2-.64-.07-.27v.91H26V76.42Zm-.52.81,0-.17-.06-.49h0l-.07.49,0,.17Zm-.41.47.2-1.28h.25l.19,1.28h-.15l0-.33h-.23l-.05.33Zm-.09,0h-.49V76.42h.16v1.14h.33ZM24,76.42v1.1a0,0,0,0,0,0,0h.18a0,0,0,0,0,0,0v-1.1h.16v1.11a.19.19,0,0,1-.05.13.18.18,0,0,1-.13,0h-.21a.2.2,0,0,1-.14,0,.19.19,0,0,1-.05-.13V76.42Zm-1.15,0,.2.64.07.27v-.91h.16V77.7h-.15l-.2-.64-.07-.27v.91h-.16V76.42Zm-.52.81,0-.17-.06-.49h0l-.06.49,0,.17ZM22,77.7l.19-1.28h.25l.19,1.28h-.15l-.05-.33h-.23l-.05.33ZM21.41,77h.1a.17.17,0,0,0,.12,0,.22.22,0,0,0,0-.13v-.41h.16v.39a.29.29,0,0,1,0,.17.15.15,0,0,1-.12.08.19.19,0,0,1,.12.09.25.25,0,0,1,0,.16v.39h-.16v-.41a.17.17,0,0,0,0-.12.17.17,0,0,0-.12,0h-.1v.56h-.16V76.42h.16Zm-.54-.57a.19.19,0,0,1,.13,0,.17.17,0,0,1,.05.13v.21A.4.4,0,0,1,21,77a.2.2,0,0,1-.13.08.25.25,0,0,1,.13.09.35.35,0,0,1,0,.16v.39h-.16v-.41c0-.06,0-.1,0-.12a.17.17,0,0,0-.12,0h-.09v.56h-.17V76.42Zm-.23.57h.09a.17.17,0,0,0,.12,0,.17.17,0,0,0,0-.13V76.6s0,0,0,0h-.21Zm-.75-.42a0,0,0,0,0,0,0v.92s0,0,0,0h.18s0,0,0,0V76.6s0,0,0,0Zm.2-.15a.17.17,0,0,1,.13,0,.14.14,0,0,1,.05.13v.93a.15.15,0,0,1-.05.13.17.17,0,0,1-.13,0h-.21a.2.2,0,0,1-.14,0,.19.19,0,0,1,0-.13V76.6a.17.17,0,0,1,0-.13.2.2,0,0,1,.14,0Zm-.45.15h-.21V77.7h-.16V76.57h-.21v-.15h.58Zm-1,1.13a.21.21,0,0,1-.14,0,.19.19,0,0,1,0-.13V76.6a.17.17,0,0,1,0-.13.22.22,0,0,1,.14,0h.21a.17.17,0,0,1,.13,0,.14.14,0,0,1,.05.13v.24h-.16V76.6s0,0,0,0h-.17s0,0,0,0v.92s0,0,0,0h.17s0,0,0,0v-.24H19v.25a.15.15,0,0,1-.05.13.17.17,0,0,1-.13,0Zm-.34,0H17.8V76.42h.49v.15H18V77h.33v.15H18v.42h.33Zm-1.12-1.28.09.64.06.5h0l.07-.5.09-.64h.16l-.1.64-.09.64H17.2l-.1-.64L17,76.42Zm-.83,0h.16V77.7h-.16Zm-.62,1.14h.1c.06,0,.1,0,.12,0a.17.17,0,0,0,0-.12v-.8a0,0,0,0,0,0,0h-.22Zm-.16.14V76.42H16a.2.2,0,0,1,.14,0,.17.17,0,0,1,.05.13v.8a.34.34,0,0,1-.07.22.32.32,0,0,1-.25.08Zm-.75-1.28H15V77.7h-.17Zm-.62,0,.2.64.08.27v-.91h.15V77.7h-.15l-.2-.64-.07-.27v.91H14V76.42Zm-.51,0h.16V77.7h-.16Zm-1,.15s0,0,0,0v.92s0,0,0,0h.17s0,0,0,0V76.6s0,0,0,0Zm.19-.15a.17.17,0,0,1,.13,0,.14.14,0,0,1,.05.13v.93a.15.15,0,0,1-.05.13.17.17,0,0,1-.13,0H12.7a.21.21,0,0,1-.14,0,.19.19,0,0,1-.05-.13V76.6a.17.17,0,0,1,.05-.13.22.22,0,0,1,.14,0Zm-.6,1.28h-.25a.27.27,0,0,1-.33-.3v-.8a.17.17,0,0,1,0-.13.22.22,0,0,1,.14,0h.21a.22.22,0,0,1,.14,0,.17.17,0,0,1,0,.13v.24h-.16V76.6s0,0,0,0h-.17s0,0,0,0v.8a.17.17,0,0,0,0,.12.17.17,0,0,0,.13,0h.09v-.42H12V77h.28Zm-1.15-1.13s0,0,0,0v.92s0,0,0,0h.17s0,0,0,0V76.6s0,0,0,0Zm.19-.15a.22.22,0,0,1,.14,0,.17.17,0,0,1,0,.13v.93a.19.19,0,0,1,0,.13.21.21,0,0,1-.14,0h-.21a.21.21,0,0,1-.14,0,.18.18,0,0,1,0-.13V76.6a.17.17,0,0,1,0-.13.22.22,0,0,1,.14,0Zm-.48,1.28h-.5V76.42h.16v1.14h.34Z" transform="translate(0.61 0.82)"/><rect class="cls-5" width="57.38" height="66.59"/><rect class="cls-6" x="0.62" y="0.59" width="56.14" height="65.41"/><path class="cls-7" d="M51.64,44.06A13.26,13.26,0,0,0,40.79,43c-2.12.61-4,1.16-6.51.59l-.16,0a20.22,20.22,0,0,0-6.3-1.18,24.1,24.1,0,0,0-6.68,1.39l-.48.09c-2.51.24-4.49-.76-6.66-1.26C11.25,42,7.14,42.27,4.5,44V40.44c4.29-2.78,6.59-2.37,10.33-1.52a40.34,40.34,0,0,0,5.06,1c2.7.24,5-1.83,7.87-1.88,2.38,0,4.61.84,7.67,1.78a8.84,8.84,0,0,0,4.06-.56c3.29-.94,6.17-2.16,12.2.62Z" transform="translate(0.61 0.82)"/><path class="cls-7" d="M51.64,33.87A13.26,13.26,0,0,0,40.79,32.8c-2.12.6-4,1.16-6.51.59l-.16,0a20.16,20.16,0,0,0-6.3-1.17,24.39,24.39,0,0,0-6.68,1.38l-.48.1c-2.51.24-4.49-.76-6.66-1.26-2.75-.63-6.86-.32-9.5,1.39V30.24c4.29-2.77,6.59-2.37,10.33-1.51a44.26,44.26,0,0,0,5.06,1c2.7.24,5-1.84,7.87-1.88,2.38,0,4.61.84,7.67,1.78a8.84,8.84,0,0,0,4.06-.56c3.29-.94,6.17-2.16,12.2.62Z" transform="translate(0.61 0.82)"/><path class="cls-7" d="M51.64,23.68A13.31,13.31,0,0,0,40.79,22.6c-2.12.61-4,1.16-6.51.59l-.16,0A20.52,20.52,0,0,0,27.82,22a24.1,24.1,0,0,0-6.68,1.39l-.48.09c-2.51.24-4.49-.76-6.66-1.25-2.75-.63-6.86-.32-9.5,1.39V20.05c4.29-2.77,6.59-2.37,10.33-1.52a42.17,42.17,0,0,0,5.06,1c2.7.24,5-1.84,7.87-1.88,2.38,0,4.61.84,7.67,1.77a8.83,8.83,0,0,0,4.06-.55c3.29-.94,6.17-2.17,12.2.62Z" transform="translate(0.61 0.82)"/><polygon class="cls-8" points="33.46 5.11 20.28 30.79 45.6 23.69 29.97 61.6 38.76 29.68 11.5 38.98 24.55 4.99 33.46 5.11"/></g></g></svg>